<svg width="14" height="14" viewBox="0 0 14 14" fill="none" xmlns="http://www.w3.org/2000/svg">
<g clip-path="url(#clip0_514_216)">
<path d="M9.3578 0.277154L3.1948 6.36615C3.13312 6.42666 3.08412 6.49887 3.05068 6.57854C3.01723 6.65821 3 6.74375 3 6.83015C3 6.91656 3.01723 7.0021 3.05068 7.08177C3.08412 7.16144 3.13312 7.23364 3.1948 7.29415L9.3578 13.3882C9.53934 13.5662 9.7835 13.666 10.0378 13.666C10.2921 13.666 10.5363 13.5662 10.7178 13.3882C10.8068 13.3003 10.8775 13.1957 10.9257 13.0803C10.974 12.965 10.9988 12.8412 10.9988 12.7162C10.9988 12.5911 10.974 12.4673 10.9257 12.352C10.8775 12.2366 10.8068 12.132 10.7178 12.0442L5.4458 6.83215L10.7188 1.62215C10.808 1.53432 10.8788 1.42963 10.9271 1.31418C10.9754 1.19872 11.0003 1.07481 11.0003 0.949654C11.0003 0.824493 10.9754 0.700583 10.9271 0.585131C10.8788 0.469678 10.808 0.364989 10.7188 0.277154C10.5373 0.0990601 10.2931 -0.000707626 10.0388 -0.000707626C9.7845 -0.000707626 9.54034 0.0990601 9.3588 0.277154" fill="white"/>
</g>
<defs>
<clipPath id="clip0_514_216">
<rect width="8" height="13.667" fill="white" transform="matrix(-1 0 0 1 11 0)"/>
</clipPath>
</defs>
</svg>
